<svg width="50" height="50" viewBox="0 0 50 50" fill="none" xmlns="http://www.w3.org/2000/svg">
<rect width="50" height="50" rx="25" fill="#FFBAD7"/>
<path d="M22 19.75V28M28 22V30.25M28.503 33.748L33.378 31.311C33.759 31.121 34 30.731 34 30.305V17.82C34 16.984 33.12 16.44 32.372 16.814L28.503 18.748C28.186 18.907 27.813 18.907 27.497 18.748L22.503 16.252C22.3468 16.1739 22.1746 16.1333 22 16.1333C21.8254 16.1333 21.6532 16.1739 21.497 16.252L16.622 18.689C16.24 18.88 16 19.27 16 19.695V32.18C16 33.016 16.88 33.56 17.628 33.186L21.497 31.252C21.814 31.093 22.187 31.093 22.503 31.252L27.497 33.749C27.814 33.907 28.187 33.907 28.503 33.749V33.748Z" stroke="#A40246" stroke-width="1.5" stroke-linecap="round" stroke-linejoin="round"/>
</svg>
